<svg width="50" height="30" viewBox="0 0 50 30" fill="none" xmlns="http://www.w3.org/2000/svg">
<path d="M50 17.1429V6.42857L37.5 0L25 6.42857L12.5 0L0 6.42857V17.1429L25 30L50 17.1429ZM17.5 12.8571H12.5V17.1429H10V12.8571H5V10.7143H10V6.42857H12.5V10.7143H17.5V12.8571ZM32.5 17.1429C31.837 17.1429 31.2011 16.9171 30.7322 16.5152C30.2634 16.1134 30 15.5683 30 15C30 13.8214 31.125 12.8571 32.5 12.8571C33.875 12.8571 35 13.8214 35 15C35 16.1786 33.875 17.1429 32.5 17.1429ZM40 12.8571C39.6717 12.8571 39.3466 12.8017 39.0433 12.694C38.74 12.5863 38.4644 12.4285 38.2322 12.2295C38.0001 12.0305 37.8159 11.7943 37.6903 11.5343C37.5647 11.2743 37.5 10.9957 37.5 10.7143C37.5 9.53572 38.625 8.57143 40 8.57143C41.375 8.57143 42.5 9.53572 42.5 10.7143C42.5 11.8929 41.375 12.8571 40 12.8571Z" fill="url(#paint0_linear_30_19)"/>
<defs>
<linearGradient id="paint0_linear_30_19" x1="25" y1="0" x2="25" y2="30" gradientUnits="userSpaceOnUse">
<stop stop-color="#D9B23D"/>
<stop offset="0.633501" stop-color="#EC3535" stop-opacity="0.65"/>
</linearGradient>
</defs>
</svg>
